<?xml version="1.0" encoding="utf-8"?>
<!-- Generator: Adobe Illustrator 17.1.0, SVG Export Plug-In . SVG Version: 6.00 Build 0)  -->
<!DOCTYPE svg PUBLIC "-//W3C//DTD SVG 1.1//EN" "http://www.w3.org/Graphics/SVG/1.1/DTD/svg11.dtd">
<svg version="1.1" id="Layer_1" xmlns="http://www.w3.org/2000/svg" xmlns:xlink="http://www.w3.org/1999/xlink" x="0px" y="0px"
	 viewBox="0 0 630.1 168.1" enable-background="new 0 0 630.1 168.1" xml:space="preserve">
<g>
	<path fill="#8C8C8C" d="M97,82.8c-0.4,0-0.6,1.1-2,2.3c-1.6,1.5-3,2-6.2,3.1c-3.6,1.3-4.8,2.8-5.8,5c-0.6,1.2-0.8,2.6-0.6,3.4
		c0.1,0.4,0.1,0.8,0.4,0.7c0.4-0.1,1.4-3.8,4.9-4c1.6-0.1,3.7,0.5,4.4,3c0.1,0.4,0.1,0.7,0.1,1.1c0.4,5.2-4.6,10-10.8,9.8
		c-4.5-0.2-9.5-3.1-10.3-8.5c-0.7-4.5,1.2-9.2,4.3-10.9c0.5,0.1,1,0.3,1.7,0.4c1.2,0.2,2.3,0.3,3.4,0.1c1.1-0.2,2.3-0.8,2.2-1.8
		c-0.2-1.5-2.6-1.7-3.8-1.7c-1.3,0-2.3,0.2-2.8,0.4c-1-0.8-1.6-1.6-2-3.1c-0.8-2.9,0.8-7.8,5.6-8.3c3-0.3,4.9,0.9,6.2,2.5
		c1.2,1.6,1.7,2.1,2,2c0.2-0.1,0.3-0.2,0.4-0.8l0-3c0-0.3-0.1-0.6-0.1-0.9c-0.4-1.8-4.6-3.6-9.1-3.4c-1.4,0.1-2.3,0.2-4.5,0.9
		c-5.1,1.8-6.7,6.3-6.3,9.7c0.5,3.5,3.4,5.3,3.4,5.3c-5.2,2-9.3,7.6-7.5,14.9c1.8,7.2,10,9.9,15.6,10c6.1,0.1,10.5-2.3,13.2-5.1
		c2.2-2.4,3.5-5.9,3-9.3c-0.2-1.2-1.1-3.8-3.1-5c0,0,1.1-0.4,1.9-1c1.7-1.3,2.5-2.9,2.8-4.5c0.2-1.4,0-2.7-0.3-3.1
		C97.2,83,97.1,82.8,97,82.8"/>
	<path fill="#8C8C8C" d="M114.3,107.3h15.1c4.9,0,9.9-2.6,10.3-9.1c0.4-6.7-3.7-9.3-8.8-9.3h-6.8c-1.8,0-2.8,0.1-3.9,2l-2.3,4.2h9
		c2.1,0,3,1.4,3,3c0,1.6-0.9,2.9-3,2.9h-8.2c-2.3,0-4.3-0.8-5.6-2.4c-1.1-1.4-2.1-3.1-2.1-6.2c0-3.4,1.1-4.8,2.1-6.1
		c1.2-1.5,3.1-2,4.9-2.2l0.8,0h14.7v0c1.8,0,2.8,0,3.9-2l2.2-4.2h-25.1c-7.9,0-13.6,6.3-13.6,14.7c0,7.5,4.6,13.5,11.3,14.6
		C112.3,107.2,112.8,107.3,114.3,107.3"/>
	<path fill="#8C8C8C" d="M41.3,86.7c0-2.7-2.2-2.6-2.2-2.6H27.4l-6.9,6.6l13.4,16.7h-9.2c-3.4,0-4.7-1.7-6.5-4.2l-6.4-8.5
		c-0.2-0.2-0.5-0.5-1.1-0.3c-0.3,0.1-0.4,0.4-0.5,0.7v12.3H0V77.8h10.2v12.5L20.6,80c1-0.9,1.8-1.5,2.8-1.8c0.7-0.2,1.5-0.3,2.6-0.3
		c0,0,0,0,0,0h39.4l-2.2,4.2c-1.1,1.9-2.1,2-3.7,2h-8.2v23.2h-9.9V86.7z"/>
	<path fill="#4D4D4D" d="M177.2,75.9v4.4c0,3,0.1,5.5,0.1,7.5c0.1,2,0.5,4,1.2,6.1c1.3,3.9,3.7,7.5,7.2,10.7c3.5,3.2,7.9,6,13.3,8.3
		l-9.1,13.6c-4.6-2.1-8.6-4.5-12-7.2c-3.4-2.7-6.3-6.3-8.8-10.7c-2.2,4.3-5,8-8.3,11c-3.4,3-7.1,5.6-11.2,7.9l-9.8-12.8
		c5.5-2.7,9.8-5.6,12.9-8.9c3.1-3.3,5.4-7.1,7-11.5c0.7-2.1,1.2-4.3,1.3-6.5c0.1-2.2,0.2-4.7,0.2-7.6v-4.4H177.2z M195.4,144.9
		c0-3.1,0.6-6.1,1.9-8.9c1.2-2.9,2.9-5.3,5.1-7.4c2.2-2.1,4.6-3.8,7.5-5c2.8-1.2,5.9-1.9,9.2-1.9c3.2,0,6.3,0.6,9.1,1.9
		c2.9,1.2,5.4,2.9,7.6,5c2.2,2.1,3.9,4.6,5.1,7.4c1.2,2.8,1.9,5.8,1.9,8.9c0,3.2-0.6,6.2-1.9,9c-1.2,2.8-2.9,5.2-5.1,7.4
		c-2.2,2.1-4.7,3.8-7.6,5c-2.9,1.3-5.9,1.9-9.1,1.9c-3.3,0-6.4-0.6-9.2-1.9c-2.9-1.2-5.3-2.9-7.5-5c-2.2-2.1-3.9-4.6-5.1-7.4
		C196,151.1,195.4,148.1,195.4,144.9 M206.4,56.7c6.4,1.3,10.9,3.8,13.3,7.6c2.5,3.8,3.7,8.9,3.7,15.3v17.2h17.1v14.4h-32.7V79.5
		c0-2.4-0.6-4.2-1.6-5.6c-1.1-1.3-3-2.4-5.6-3.2L206.4,56.7z M210.1,144.9c0,2.5,0.8,4.6,2.5,6.3c1.6,1.7,3.8,2.5,6.5,2.5
		c2.7,0,4.8-0.8,6.5-2.5c1.6-1.7,2.5-3.8,2.5-6.3c0-2.5-0.8-4.6-2.5-6.3c-1.6-1.7-3.8-2.5-6.5-2.5c-2.7,0-4.8,0.8-6.5,2.5
		C210.9,140.3,210.1,142.4,210.1,144.9"/>
	<path fill="#4D4D4D" d="M283.2,75.9v4.4c0,3,0,5.5,0.1,7.5c0.1,2,0.5,4,1.2,6.1c1.3,3.9,3.7,7.5,7.2,10.7c3.5,3.2,7.9,6,13.4,8.3
		l-9.1,13.6c-4.6-2.1-8.6-4.5-12-7.2c-3.4-2.7-6.3-6.3-8.8-10.7c-2.2,4.3-5,8-8.3,11c-3.3,3-7.1,5.6-11.2,7.9l-9.8-12.8
		c5.5-2.7,9.8-5.6,12.9-8.9c3.1-3.3,5.4-7.1,6.9-11.5c0.7-2.1,1.2-4.3,1.3-6.5c0.1-2.2,0.2-4.7,0.2-7.6v-4.4H283.2z M301.3,144.9
		c0-3.1,0.6-6.1,1.9-8.9c1.2-2.9,2.9-5.3,5.1-7.4c2.1-2.1,4.7-3.8,7.5-5c2.9-1.2,5.9-1.9,9.2-1.9c3.2,0,6.3,0.6,9.1,1.9
		c2.9,1.2,5.4,2.9,7.6,5c2.2,2.1,3.9,4.6,5.1,7.4c1.3,2.8,1.9,5.8,1.9,8.9c0,3.2-0.6,6.2-1.9,9c-1.2,2.8-2.9,5.2-5.1,7.4
		c-2.2,2.1-4.7,3.8-7.6,5c-2.9,1.3-5.9,1.9-9.1,1.9c-3.3,0-6.4-0.6-9.2-1.9c-2.8-1.2-5.3-2.9-7.5-5c-2.2-2.1-3.9-4.6-5.1-7.4
		C301.9,151.1,301.3,148.1,301.3,144.9 M312.3,56.7c6.4,1.3,10.9,3.8,13.4,7.6c2.5,3.8,3.7,8.9,3.7,15.3v17.2h17.1v14.4h-32.7V79.5
		c0-2.4-0.6-4.2-1.7-5.6c-1.1-1.3-3-2.4-5.6-3.2L312.3,56.7z M316,144.9c0,2.5,0.8,4.6,2.5,6.3c1.7,1.7,3.8,2.5,6.5,2.5
		c2.7,0,4.8-0.8,6.5-2.5c1.7-1.7,2.5-3.8,2.5-6.3c0-2.5-0.8-4.6-2.5-6.3c-1.7-1.7-3.8-2.5-6.5-2.5c-2.7,0-4.8,0.8-6.5,2.5
		C316.9,140.3,316,142.4,316,144.9"/>
	<path fill="#4D4D4D" d="M404.7,125.6h-47.2V77.5h47.2V125.6z M389.4,91.5h-16.6v20.2h16.6V91.5z M411.5,70.7
		c2.7,0.8,4.5,1.9,5.6,3.2c1.1,1.3,1.7,3.2,1.7,5.6v31.6h32.8V96.7h-17.1V79.5c0-6.4-1.2-11.5-3.7-15.3c-2.5-3.8-6.9-6.3-13.4-7.6
		L411.5,70.7z"/>
	<path fill="#4D4D4D" d="M461.8,125.6V77.5h41v14.1h-25.3v19.7h25.6v14.3H461.8z M504.2,144.9c0-3.1,0.6-6.1,1.9-8.9
		c1.2-2.9,2.9-5.3,5.1-7.4c2.2-2.1,4.7-3.8,7.5-5c2.9-1.2,5.9-1.9,9.2-1.9c3.2,0,6.3,0.6,9.1,1.9c2.9,1.2,5.4,2.9,7.6,5
		c2.2,2.1,3.8,4.6,5.1,7.4c1.2,2.8,1.9,5.8,1.9,8.9c0,3.2-0.6,6.2-1.9,9c-1.2,2.8-2.9,5.2-5.1,7.4c-2.2,2.1-4.7,3.8-7.6,5
		c-2.9,1.3-5.9,1.9-9.1,1.9c-3.3,0-6.4-0.6-9.2-1.9c-2.8-1.2-5.3-2.9-7.5-5c-2.2-2.1-3.9-4.6-5.1-7.4
		C504.8,151.1,504.2,148.1,504.2,144.9 M515.9,56.7c6.4,1.3,10.9,3.8,13.4,7.6c2.5,3.8,3.7,8.9,3.7,15.3v17.2H550v14.4h-32.7V79.5
		c0-2.4-0.5-4.2-1.7-5.6c-1.1-1.3-3-2.4-5.6-3.2L515.9,56.7z M518.9,144.9c0,2.5,0.8,4.6,2.5,6.3c1.7,1.7,3.8,2.5,6.5,2.5
		c2.7,0,4.8-0.8,6.5-2.5c1.7-1.7,2.5-3.8,2.5-6.3c0-2.5-0.8-4.6-2.5-6.3c-1.7-1.7-3.8-2.5-6.5-2.5c-2.7,0-4.8,0.8-6.5,2.5
		C519.7,140.3,518.9,142.4,518.9,144.9"/>
	<path fill="#B5DC10" d="M534.1,38.1C534.1,38.1,534.1,38.1,534.1,38.1L534.1,38.1C534.1,38.1,534.1,38.1,534.1,38.1"/>
	<path fill="#F40159" d="M502.8,5.8c-6.4-4.2-11-5.8-14.3-5.8c-3.1,0-5.1,1.4-6.5,3.6c-2.9,4.4-2,10.1,10.4,18.2
		c8.2,5.3,29.2,11.5,41.8,16.3C524.6,28.4,510.9,11.2,502.8,5.8"/>
	<path fill="#96003B" d="M576.1,54c-8.1-5.3-29.4-11.1-42-15.9l0,0c9.4,9.6,23.4,26.5,31.5,31.8c6.4,4.2,11,5.8,14.3,5.8
		c3.1,0,5.2-1.4,6.5-3.6C589.3,67.8,588.5,62.1,576.1,54"/>
	<path fill="#4D4D4D" d="M623.5,91c-5.8-7.9-23.7-20.7-33.8-29.6l0,0c5.4,12.3,12.6,33,18.4,40.9c8.7,12,14.5,12.6,18.7,9.5
		C631.1,108.6,632.3,103,623.5,91"/>
	<path fill="#999999" d="M589.8,61.4c-5.4-12.3-12.2-33.3-18-41.2c-8.7-11.9-14.5-12.6-18.7-9.4c-4.3,3.1-5.4,8.7,3.3,20.7
		C562.1,39.4,579.7,52.5,589.8,61.4L589.8,61.4L589.8,61.4L589.8,61.4"/>
</g>
</svg>
